<mxfile host="app.diagrams.net" modified="2024-01-16T23:38:29.555Z" agent="Mozilla/5.0 (Windows NT 10.0; Win64; x64) AppleWebKit/537.36 (KHTML, like Gecko) Chrome/120.0.0.0 Safari/537.36" etag="qyc-ct6eYLb4dSh8lPbF" version="22.1.20" type="github">
  <diagram name="Page-1" id="hWAXKIq-UvrtwWa6Y3Kl">
    <mxGraphModel dx="1481" dy="779" grid="1" gridSize="10" guides="1" tooltips="1" connect="1" arrows="1" fold="1" page="1" pageScale="1" pageWidth="1169" pageHeight="827" math="0" shadow="0">
      <root>
        <mxCell id="0" />
        <mxCell id="1" parent="0" />
        <mxCell id="QMQ7qLqh33K4k-CmOpZa-18" style="edgeStyle=orthogonalEdgeStyle;rounded=0;orthogonalLoop=1;jettySize=auto;html=1;entryX=0;entryY=0.5;entryDx=0;entryDy=0;curved=1;" parent="1" source="QMQ7qLqh33K4k-CmOpZa-2" target="QMQ7qLqh33K4k-CmOpZa-4" edge="1">
          <mxGeometry relative="1" as="geometry" />
        </mxCell>
        <mxCell id="QMQ7qLqh33K4k-CmOpZa-19" style="edgeStyle=orthogonalEdgeStyle;rounded=0;orthogonalLoop=1;jettySize=auto;html=1;curved=1;" parent="1" source="QMQ7qLqh33K4k-CmOpZa-2" target="QMQ7qLqh33K4k-CmOpZa-8" edge="1">
          <mxGeometry relative="1" as="geometry" />
        </mxCell>
        <mxCell id="QMQ7qLqh33K4k-CmOpZa-20" style="edgeStyle=orthogonalEdgeStyle;rounded=0;orthogonalLoop=1;jettySize=auto;html=1;entryX=0;entryY=0.5;entryDx=0;entryDy=0;curved=1;" parent="1" source="QMQ7qLqh33K4k-CmOpZa-2" target="QMQ7qLqh33K4k-CmOpZa-7" edge="1">
          <mxGeometry relative="1" as="geometry" />
        </mxCell>
        <mxCell id="QMQ7qLqh33K4k-CmOpZa-2" value="&lt;b&gt;Census data&lt;/b&gt;" style="shape=note;whiteSpace=wrap;html=1;backgroundOutline=1;darkOpacity=0.05;fillColor=#fff2cc;strokeColor=#d6b656;" parent="1" vertex="1">
          <mxGeometry x="120" y="400" width="80" height="100" as="geometry" />
        </mxCell>
        <mxCell id="QMQ7qLqh33K4k-CmOpZa-16" style="edgeStyle=orthogonalEdgeStyle;rounded=0;orthogonalLoop=1;jettySize=auto;html=1;entryX=0;entryY=0.5;entryDx=0;entryDy=0;" parent="1" source="QMQ7qLqh33K4k-CmOpZa-3" target="QMQ7qLqh33K4k-CmOpZa-4" edge="1">
          <mxGeometry relative="1" as="geometry" />
        </mxCell>
        <mxCell id="QMQ7qLqh33K4k-CmOpZa-3" value="&lt;b&gt;Seed data (VISTA data)&lt;/b&gt;" style="shape=note;whiteSpace=wrap;html=1;backgroundOutline=1;darkOpacity=0.05;fillColor=#fff2cc;strokeColor=#d6b656;" parent="1" vertex="1">
          <mxGeometry x="120" y="220" width="80" height="100" as="geometry" />
        </mxCell>
        <mxCell id="QMQ7qLqh33K4k-CmOpZa-21" style="edgeStyle=orthogonalEdgeStyle;rounded=0;orthogonalLoop=1;jettySize=auto;html=1;entryX=0;entryY=0.5;entryDx=0;entryDy=0;" parent="1" source="QMQ7qLqh33K4k-CmOpZa-4" target="QMQ7qLqh33K4k-CmOpZa-5" edge="1">
          <mxGeometry relative="1" as="geometry" />
        </mxCell>
        <mxCell id="QMQ7qLqh33K4k-CmOpZa-4" value="&lt;b&gt;Bayesian Network (BN) and Rejection Sampling&lt;/b&gt;" style="ellipse;whiteSpace=wrap;html=1;aspect=fixed;fillColor=#f8cecc;strokeColor=#b85450;" parent="1" vertex="1">
          <mxGeometry x="270" y="210" width="120" height="120" as="geometry" />
        </mxCell>
        <mxCell id="QMQ7qLqh33K4k-CmOpZa-24" style="edgeStyle=orthogonalEdgeStyle;rounded=0;orthogonalLoop=1;jettySize=auto;html=1;entryX=0.5;entryY=0;entryDx=0;entryDy=0;curved=1;" parent="1" source="QMQ7qLqh33K4k-CmOpZa-5" target="QMQ7qLqh33K4k-CmOpZa-12" edge="1">
          <mxGeometry relative="1" as="geometry" />
        </mxCell>
        <mxCell id="QMQ7qLqh33K4k-CmOpZa-5" value="&lt;b&gt;Synthetic Population&lt;/b&gt;" style="rounded=0;whiteSpace=wrap;html=1;fillColor=#d5e8d4;strokeColor=#82b366;" parent="1" vertex="1">
          <mxGeometry x="470" y="240" width="120" height="60" as="geometry" />
        </mxCell>
        <mxCell id="QMQ7qLqh33K4k-CmOpZa-23" style="edgeStyle=orthogonalEdgeStyle;rounded=0;orthogonalLoop=1;jettySize=auto;html=1;entryX=0;entryY=0.5;entryDx=0;entryDy=0;" parent="1" source="QMQ7qLqh33K4k-CmOpZa-7" target="QMQ7qLqh33K4k-CmOpZa-9" edge="1">
          <mxGeometry relative="1" as="geometry" />
        </mxCell>
        <mxCell id="QMQ7qLqh33K4k-CmOpZa-7" value="&lt;b&gt;Multilayer Perceptron (MLP)&lt;/b&gt;" style="ellipse;whiteSpace=wrap;html=1;aspect=fixed;fillColor=#f8cecc;strokeColor=#b85450;" parent="1" vertex="1">
          <mxGeometry x="270" y="590" width="120" height="120" as="geometry" />
        </mxCell>
        <mxCell id="QMQ7qLqh33K4k-CmOpZa-22" style="edgeStyle=orthogonalEdgeStyle;rounded=0;orthogonalLoop=1;jettySize=auto;html=1;" parent="1" source="QMQ7qLqh33K4k-CmOpZa-8" target="QMQ7qLqh33K4k-CmOpZa-10" edge="1">
          <mxGeometry relative="1" as="geometry" />
        </mxCell>
        <mxCell id="QMQ7qLqh33K4k-CmOpZa-8" value="&lt;b&gt;Regression&lt;/b&gt;" style="ellipse;whiteSpace=wrap;html=1;aspect=fixed;fillColor=#f8cecc;strokeColor=#b85450;" parent="1" vertex="1">
          <mxGeometry x="270" y="400" width="120" height="120" as="geometry" />
        </mxCell>
        <mxCell id="QMQ7qLqh33K4k-CmOpZa-27" style="edgeStyle=orthogonalEdgeStyle;rounded=0;orthogonalLoop=1;jettySize=auto;html=1;entryX=0;entryY=0.5;entryDx=0;entryDy=0;curved=1;" parent="1" source="QMQ7qLqh33K4k-CmOpZa-9" target="QMQ7qLqh33K4k-CmOpZa-14" edge="1">
          <mxGeometry relative="1" as="geometry" />
        </mxCell>
        <mxCell id="QMQ7qLqh33K4k-CmOpZa-9" value="&lt;b&gt;Prediction of number of EV&lt;/b&gt;" style="rounded=0;whiteSpace=wrap;html=1;fillColor=#d5e8d4;strokeColor=#82b366;" parent="1" vertex="1">
          <mxGeometry x="470" y="620" width="120" height="60" as="geometry" />
        </mxCell>
        <mxCell id="QMQ7qLqh33K4k-CmOpZa-25" style="edgeStyle=orthogonalEdgeStyle;rounded=0;orthogonalLoop=1;jettySize=auto;html=1;entryX=0;entryY=0.5;entryDx=0;entryDy=0;curved=1;" parent="1" source="QMQ7qLqh33K4k-CmOpZa-10" target="QMQ7qLqh33K4k-CmOpZa-12" edge="1">
          <mxGeometry relative="1" as="geometry" />
        </mxCell>
        <mxCell id="QMQ7qLqh33K4k-CmOpZa-10" value="&lt;b&gt;Score for each households&lt;/b&gt;" style="rounded=0;whiteSpace=wrap;html=1;fillColor=#d5e8d4;strokeColor=#82b366;" parent="1" vertex="1">
          <mxGeometry x="470" y="430" width="120" height="60" as="geometry" />
        </mxCell>
        <mxCell id="QMQ7qLqh33K4k-CmOpZa-26" style="edgeStyle=orthogonalEdgeStyle;rounded=0;orthogonalLoop=1;jettySize=auto;html=1;entryX=0.5;entryY=0;entryDx=0;entryDy=0;" parent="1" source="QMQ7qLqh33K4k-CmOpZa-12" target="QMQ7qLqh33K4k-CmOpZa-14" edge="1">
          <mxGeometry relative="1" as="geometry" />
        </mxCell>
        <mxCell id="QMQ7qLqh33K4k-CmOpZa-12" value="&lt;b&gt;Ranked households from most likely to own EV&lt;/b&gt;" style="rounded=0;whiteSpace=wrap;html=1;fillColor=#d5e8d4;strokeColor=#82b366;" parent="1" vertex="1">
          <mxGeometry x="650" y="330" width="120" height="60" as="geometry" />
        </mxCell>
        <mxCell id="QMQ7qLqh33K4k-CmOpZa-28" style="edgeStyle=orthogonalEdgeStyle;rounded=0;orthogonalLoop=1;jettySize=auto;html=1;entryX=0.16;entryY=0.55;entryDx=0;entryDy=0;entryPerimeter=0;" parent="1" source="QMQ7qLqh33K4k-CmOpZa-14" target="QMQ7qLqh33K4k-CmOpZa-15" edge="1">
          <mxGeometry relative="1" as="geometry" />
        </mxCell>
        <mxCell id="QMQ7qLqh33K4k-CmOpZa-14" value="&lt;b&gt;Assigning EV to each household&lt;/b&gt;" style="ellipse;whiteSpace=wrap;html=1;aspect=fixed;fillColor=#f8cecc;strokeColor=#b85450;" parent="1" vertex="1">
          <mxGeometry x="650" y="480" width="120" height="120" as="geometry" />
        </mxCell>
        <mxCell id="QMQ7qLqh33K4k-CmOpZa-15" value="&lt;b&gt;Full Population with EV ownership&lt;/b&gt;" style="ellipse;shape=cloud;whiteSpace=wrap;html=1;fillColor=#dae8fc;strokeColor=#6c8ebf;" parent="1" vertex="1">
          <mxGeometry x="820" y="480" width="180" height="110" as="geometry" />
        </mxCell>
      </root>
    </mxGraphModel>
  </diagram>
</mxfile>
